<svg width="572" height="30" viewBox="0 0 572 30" fill="none" xmlns="http://www.w3.org/2000/svg">
<g clip-path="url(#clip0_91_987)">
<path d="M36.6089 17.1218C36.6089 12.3024 40.3076 8.91718 45.3472 8.91718C48.419 8.91718 50.8394 10.0395 52.3867 12.0562L49.0459 15.0363C48.1269 13.8727 47.0291 13.1984 45.6163 13.1984C43.4206 13.1984 41.9405 14.7244 41.9405 17.1218C41.9405 19.5193 43.4206 21.0453 45.6163 21.0453C47.0291 21.0453 48.1269 20.3725 49.0459 19.2059L52.3867 22.1875C50.8455 24.2057 48.419 25.3265 45.3472 25.3265C40.3076 25.3204 36.6089 21.9352 36.6089 17.1218Z" fill="#0A0A0A"/>
<path d="M62.5455 12.4752V16.9583C62.1755 16.8986 61.8009 16.8681 61.4248 16.8681C59.9003 16.8681 58.8239 17.5638 58.8239 19.5133V24.9596H53.7583V12.7H58.5762V14.0241C59.4737 12.9905 60.8407 12.4752 62.5455 12.4752Z" fill="#0A0A0A"/>
<path d="M76.8463 20.0071H68.3281C68.6859 20.949 69.5391 21.4429 70.7944 21.4429C71.9152 21.4429 72.5436 21.1508 73.3509 20.5438L75.9961 23.2119C74.8081 24.5116 73.0834 25.1844 70.6385 25.1844C66.134 25.1844 63.2197 22.4719 63.2197 18.8191C63.2197 15.0929 66.2013 12.4752 70.1691 12.4752C73.8005 12.4752 76.9151 14.6709 76.9151 18.8191C76.9135 19.1784 76.8692 19.6478 76.8463 20.0071ZM68.2379 17.5653H72.1828C71.981 16.5378 71.2409 15.9277 70.2104 15.9277C69.1599 15.9262 68.4428 16.5317 68.241 17.5638L68.2379 17.5653Z" fill="#0A0A0A"/>
<path d="M90.2971 18.3711V24.9596H85.5908V23.348C85.0067 24.5804 83.8416 25.1859 82.1215 25.1859C79.117 25.1859 77.5712 23.4825 77.5712 21.374C77.5712 18.9979 79.3632 17.6754 83.175 17.6754H85.2147C85.0572 16.7335 84.3416 16.2411 82.9013 16.2411C81.8019 16.2411 80.5711 16.5989 79.7638 17.2044L78.1491 13.8635C79.5833 12.9645 81.7591 12.4737 83.6627 12.4737C87.8767 12.4752 90.2971 14.2947 90.2971 18.3711ZM85.233 20.9765V20.1248H83.9777C82.9013 20.1248 82.4365 20.4826 82.4365 21.1523C82.4365 21.7119 82.8845 22.1385 83.6475 22.1385C84.3355 22.1339 84.9624 21.7777 85.233 20.9765Z" fill="#0A0A0A"/>
<path d="M101.529 24.5345C100.745 24.9825 99.6011 25.1843 98.413 25.1843C95.0278 25.1843 93.0554 23.5926 93.0554 20.2074V17.0698H91.375V13.3727H93.0554V9.94312H98.1225V13.3727H100.633V17.0714H98.1225V20.1645C98.1225 20.926 98.5705 21.3526 99.176 21.3526C99.5812 21.3556 99.9787 21.2379 100.318 21.0162L101.529 24.5345Z" fill="#0A0A0A"/>
<path d="M102.292 9.13583C102.292 7.67869 103.48 6.55792 105.339 6.55792C107.199 6.55792 108.388 7.58542 108.388 9.04562C108.388 10.5869 107.2 11.7137 105.339 11.7137C103.479 11.7137 102.292 10.593 102.292 9.13583ZM102.806 12.7H107.873V24.9611H102.807L102.806 12.7Z" fill="#0A0A0A"/>
<path d="M123.766 12.7L118.835 24.9611H113.587L108.656 12.6984H113.856L116.324 19.2686L118.969 12.7H123.766Z" fill="#0A0A0A"/>
<path d="M137.193 20.0071H128.675C129.035 20.949 129.886 21.4428 131.142 21.4428C132.262 21.4428 132.891 21.1508 133.698 20.5438L136.343 23.2119C135.155 24.5116 133.431 25.1843 130.986 25.1843C126.481 25.1843 123.567 22.4719 123.567 18.8191C123.567 15.0929 126.548 12.4752 130.516 12.4752C134.148 12.4752 137.264 14.6708 137.264 18.8191C137.262 19.1784 137.216 19.6478 137.193 20.0071ZM128.584 17.5653H132.528C132.327 16.5378 131.587 15.9277 130.556 15.9277C129.506 15.9262 128.788 16.5317 128.587 17.5637L128.584 17.5653Z" fill="#0A0A0A"/>
<path d="M154.477 9.27039V24.9611H149.187V19.1784H144.297V24.9611H139.01V9.27039H144.297V14.8299H149.179V9.27039H154.477Z" fill="#0A0A0A"/>
<path d="M170.281 12.7V24.9611H165.462V23.7944C164.543 24.7363 163.31 25.1843 161.992 25.1843C159.055 25.1843 156.836 23.4581 156.836 19.4689V12.7H161.904V18.5958C161.904 20.345 162.509 20.926 163.494 20.926C164.368 20.926 165.22 20.2777 165.22 18.4613V12.7H170.281Z" fill="#0A0A0A"/>
<path d="M186.623 18.8191C186.623 22.7639 183.912 25.1843 180.706 25.1843C179.182 25.1843 178.084 24.7807 177.344 23.9504V24.9596H172.526V8.32852H177.591V13.5241C178.332 12.807 179.362 12.4706 180.708 12.4706C183.912 12.4752 186.623 14.8742 186.623 18.8191ZM181.492 18.8191C181.492 17.2274 180.617 16.42 179.497 16.42C178.376 16.42 177.501 17.2274 177.501 18.8191C177.501 20.4108 178.376 21.2395 179.497 21.2395C180.617 21.2395 181.49 20.4108 181.492 18.8191Z" fill="#0A0A0A"/>
<path d="M14.7595 0C6.60838 0 0 6.60838 0 14.7595C0 22.9107 6.60838 29.5191 14.7595 29.5191C22.9107 29.5191 29.5191 22.9137 29.5191 14.7595C29.5191 6.60532 22.9092 0 14.7595 0ZM20.7701 14.7794C20.3053 15.1158 19.7747 15.3497 19.2135 15.4659L19.1218 15.4843V19.4719H16.2075V15.2779L15.7549 15.1708C15.2075 15.0439 14.6418 14.914 14.1388 14.8834C14.0271 14.8788 13.9155 14.8803 13.8039 14.8895L13.6969 14.8987V22.6202H10.7872V15.8665L9.88811 16.5057L8.20619 14.1265L9.14195 13.4583C9.60677 13.122 10.1373 12.888 10.6985 12.7718L10.7902 12.7535V7.72303H13.7045V11.9798L13.8238 11.9752C13.8911 11.9721 13.9599 11.9721 14.0271 11.9721C14.1265 11.9706 14.2259 11.9752 14.3253 11.9859H14.3345C14.9201 12.0211 15.5026 12.1098 16.073 12.2504L16.2106 12.2841V7.69398H19.1249V12.3712L20.0239 11.7321L21.7089 14.1097L20.7701 14.7794Z" fill="#0A0A0A"/>
<path d="M195.89 27.492V10.644H197.492V27.492H195.89ZM209.775 24.144C208.815 24.144 207.897 24 207.021 23.712C206.145 23.412 205.455 23.028 204.951 22.56L205.617 21.156C206.097 21.576 206.709 21.924 207.453 22.2C208.197 22.476 208.971 22.614 209.775 22.614C210.507 22.614 211.101 22.53 211.557 22.362C212.013 22.194 212.349 21.966 212.565 21.678C212.781 21.378 212.889 21.042 212.889 20.67C212.889 20.238 212.745 19.89 212.457 19.626C212.181 19.362 211.815 19.152 211.359 18.996C210.915 18.828 210.423 18.684 209.883 18.564C209.343 18.444 208.797 18.306 208.245 18.15C207.705 17.982 207.207 17.772 206.751 17.52C206.307 17.268 205.947 16.932 205.671 16.512C205.395 16.08 205.257 15.528 205.257 14.856C205.257 14.208 205.425 13.614 205.761 13.074C206.109 12.522 206.637 12.084 207.345 11.76C208.065 11.424 208.977 11.256 210.081 11.256C210.813 11.256 211.539 11.352 212.259 11.544C212.979 11.736 213.603 12.012 214.131 12.372L213.537 13.812C212.997 13.452 212.427 13.194 211.827 13.038C211.227 12.87 210.645 12.786 210.081 12.786C209.373 12.786 208.791 12.876 208.335 13.056C207.879 13.236 207.543 13.476 207.327 13.776C207.123 14.076 207.021 14.412 207.021 14.784C207.021 15.228 207.159 15.582 207.435 15.846C207.723 16.11 208.089 16.32 208.533 16.476C208.989 16.632 209.487 16.776 210.027 16.908C210.567 17.028 211.107 17.166 211.647 17.322C212.199 17.478 212.697 17.682 213.141 17.934C213.597 18.186 213.963 18.522 214.239 18.942C214.515 19.362 214.653 19.902 214.653 20.562C214.653 21.198 214.479 21.792 214.131 22.344C213.783 22.884 213.243 23.322 212.511 23.658C211.791 23.982 210.879 24.144 209.775 24.144ZM221.045 24.108C220.229 24.108 219.509 23.958 218.885 23.658C218.273 23.358 217.793 22.902 217.445 22.29C217.109 21.666 216.941 20.886 216.941 19.95V14.46H218.669V19.752C218.669 20.688 218.891 21.39 219.335 21.858C219.791 22.326 220.427 22.56 221.243 22.56C221.843 22.56 222.365 22.44 222.809 22.2C223.253 21.948 223.595 21.588 223.835 21.12C224.075 20.64 224.195 20.064 224.195 19.392V14.46H225.923V24H224.285V21.426L224.555 22.11C224.243 22.746 223.775 23.238 223.151 23.586C222.527 23.934 221.825 24.108 221.045 24.108ZM233.37 24.108C232.398 24.108 231.528 23.898 230.76 23.478C230.004 23.058 229.41 22.482 228.978 21.75C228.546 21.018 228.33 20.178 228.33 19.23C228.33 18.282 228.546 17.442 228.978 16.71C229.41 15.978 230.004 15.408 230.76 15C231.528 14.58 232.398 14.37 233.37 14.37C234.234 14.37 235.002 14.544 235.674 14.892C236.358 15.228 236.886 15.732 237.258 16.404L235.944 17.25C235.632 16.782 235.248 16.44 234.792 16.224C234.348 15.996 233.868 15.882 233.352 15.882C232.728 15.882 232.17 16.02 231.678 16.296C231.186 16.572 230.796 16.962 230.508 17.466C230.22 17.958 230.076 18.546 230.076 19.23C230.076 19.914 230.22 20.508 230.508 21.012C230.796 21.516 231.186 21.906 231.678 22.182C232.17 22.458 232.728 22.596 233.352 22.596C233.868 22.596 234.348 22.488 234.792 22.272C235.248 22.044 235.632 21.696 235.944 21.228L237.258 22.056C236.886 22.716 236.358 23.226 235.674 23.586C235.002 23.934 234.234 24.108 233.37 24.108ZM243.513 24.108C242.541 24.108 241.671 23.898 240.903 23.478C240.147 23.058 239.553 22.482 239.121 21.75C238.689 21.018 238.473 20.178 238.473 19.23C238.473 18.282 238.689 17.442 239.121 16.71C239.553 15.978 240.147 15.408 240.903 15C241.671 14.58 242.541 14.37 243.513 14.37C244.377 14.37 245.145 14.544 245.817 14.892C246.501 15.228 247.029 15.732 247.401 16.404L246.087 17.25C245.775 16.782 245.391 16.44 244.935 16.224C244.491 15.996 244.011 15.882 243.495 15.882C242.871 15.882 242.313 16.02 241.821 16.296C241.329 16.572 240.939 16.962 240.651 17.466C240.363 17.958 240.219 18.546 240.219 19.23C240.219 19.914 240.363 20.508 240.651 21.012C240.939 21.516 241.329 21.906 241.821 22.182C242.313 22.458 242.871 22.596 243.495 22.596C244.011 22.596 244.491 22.488 244.935 22.272C245.391 22.044 245.775 21.696 246.087 21.228L247.401 22.056C247.029 22.716 246.501 23.226 245.817 23.586C245.145 23.934 244.377 24.108 243.513 24.108ZM253.745 24.108C252.725 24.108 251.825 23.898 251.045 23.478C250.277 23.058 249.677 22.482 249.245 21.75C248.825 21.018 248.615 20.178 248.615 19.23C248.615 18.282 248.819 17.442 249.227 16.71C249.647 15.978 250.217 15.408 250.937 15C251.669 14.58 252.491 14.37 253.403 14.37C254.327 14.37 255.143 14.574 255.851 14.982C256.559 15.39 257.111 15.966 257.507 16.71C257.915 17.442 258.119 18.3 258.119 19.284C258.119 19.356 258.113 19.44 258.101 19.536C258.101 19.632 258.095 19.722 258.083 19.806H249.965V18.564H257.183L256.481 18.996C256.493 18.384 256.367 17.838 256.103 17.358C255.839 16.878 255.473 16.506 255.005 16.242C254.549 15.966 254.015 15.828 253.403 15.828C252.803 15.828 252.269 15.966 251.801 16.242C251.333 16.506 250.967 16.884 250.703 17.376C250.439 17.856 250.307 18.408 250.307 19.032V19.32C250.307 19.956 250.451 20.526 250.739 21.03C251.039 21.522 251.453 21.906 251.981 22.182C252.509 22.458 253.115 22.596 253.799 22.596C254.363 22.596 254.873 22.5 255.329 22.308C255.797 22.116 256.205 21.828 256.553 21.444L257.507 22.56C257.075 23.064 256.535 23.448 255.887 23.712C255.251 23.976 254.537 24.108 253.745 24.108ZM263.255 24.108C262.463 24.108 261.707 24 260.987 23.784C260.279 23.568 259.721 23.304 259.313 22.992L260.033 21.624C260.441 21.9 260.945 22.134 261.545 22.326C262.145 22.518 262.757 22.614 263.381 22.614C264.185 22.614 264.761 22.5 265.109 22.272C265.469 22.044 265.649 21.726 265.649 21.318C265.649 21.018 265.541 20.784 265.325 20.616C265.109 20.448 264.821 20.322 264.461 20.238C264.113 20.154 263.723 20.082 263.291 20.022C262.859 19.95 262.427 19.866 261.995 19.77C261.563 19.662 261.167 19.518 260.807 19.338C260.447 19.146 260.159 18.888 259.943 18.564C259.727 18.228 259.619 17.784 259.619 17.232C259.619 16.656 259.781 16.152 260.105 15.72C260.429 15.288 260.885 14.958 261.473 14.73C262.073 14.49 262.781 14.37 263.597 14.37C264.221 14.37 264.851 14.448 265.487 14.604C266.135 14.748 266.663 14.958 267.071 15.234L266.333 16.602C265.901 16.314 265.451 16.116 264.983 16.008C264.515 15.9 264.047 15.846 263.579 15.846C262.823 15.846 262.259 15.972 261.887 16.224C261.515 16.464 261.329 16.776 261.329 17.16C261.329 17.484 261.437 17.736 261.653 17.916C261.881 18.084 262.169 18.216 262.517 18.312C262.877 18.408 263.273 18.492 263.705 18.564C264.137 18.624 264.569 18.708 265.001 18.816C265.433 18.912 265.823 19.05 266.171 19.23C266.531 19.41 266.819 19.662 267.035 19.986C267.263 20.31 267.377 20.742 267.377 21.282C267.377 21.858 267.209 22.356 266.873 22.776C266.537 23.196 266.063 23.526 265.451 23.766C264.839 23.994 264.107 24.108 263.255 24.108ZM272.272 24.108C271.48 24.108 270.724 24 270.004 23.784C269.296 23.568 268.738 23.304 268.33 22.992L269.05 21.624C269.458 21.9 269.962 22.134 270.562 22.326C271.162 22.518 271.774 22.614 272.398 22.614C273.202 22.614 273.778 22.5 274.126 22.272C274.486 22.044 274.666 21.726 274.666 21.318C274.666 21.018 274.558 20.784 274.342 20.616C274.126 20.448 273.838 20.322 273.478 20.238C273.13 20.154 272.74 20.082 272.308 20.022C271.876 19.95 271.444 19.866 271.012 19.77C270.58 19.662 270.184 19.518 269.824 19.338C269.464 19.146 269.176 18.888 268.96 18.564C268.744 18.228 268.636 17.784 268.636 17.232C268.636 16.656 268.798 16.152 269.122 15.72C269.446 15.288 269.902 14.958 270.49 14.73C271.09 14.49 271.798 14.37 272.614 14.37C273.238 14.37 273.868 14.448 274.504 14.604C275.152 14.748 275.68 14.958 276.088 15.234L275.35 16.602C274.918 16.314 274.468 16.116 274 16.008C273.532 15.9 273.064 15.846 272.596 15.846C271.84 15.846 271.276 15.972 270.904 16.224C270.532 16.464 270.346 16.776 270.346 17.16C270.346 17.484 270.454 17.736 270.67 17.916C270.898 18.084 271.186 18.216 271.534 18.312C271.894 18.408 272.29 18.492 272.722 18.564C273.154 18.624 273.586 18.708 274.018 18.816C274.45 18.912 274.84 19.05 275.188 19.23C275.548 19.41 275.836 19.662 276.052 19.986C276.28 20.31 276.394 20.742 276.394 21.282C276.394 21.858 276.226 22.356 275.89 22.776C275.554 23.196 275.08 23.526 274.468 23.766C273.856 23.994 273.124 24.108 272.272 24.108ZM278.806 24V13.614C278.806 12.678 279.076 11.934 279.616 11.382C280.168 10.818 280.948 10.536 281.956 10.536C282.328 10.536 282.682 10.584 283.018 10.68C283.366 10.764 283.66 10.902 283.9 11.094L283.378 12.408C283.198 12.264 282.994 12.156 282.766 12.084C282.538 12 282.298 11.958 282.046 11.958C281.542 11.958 281.158 12.102 280.894 12.39C280.63 12.666 280.498 13.08 280.498 13.632V14.91L280.534 15.702V24H278.806ZM277.186 15.882V14.46H283.27V15.882H277.186ZM288.914 24.108C288.098 24.108 287.378 23.958 286.754 23.658C286.142 23.358 285.662 22.902 285.314 22.29C284.978 21.666 284.81 20.886 284.81 19.95V14.46H286.538V19.752C286.538 20.688 286.76 21.39 287.204 21.858C287.66 22.326 288.296 22.56 289.112 22.56C289.712 22.56 290.234 22.44 290.678 22.2C291.122 21.948 291.464 21.588 291.704 21.12C291.944 20.64 292.064 20.064 292.064 19.392V14.46H293.792V24H292.154V21.426L292.424 22.11C292.112 22.746 291.644 23.238 291.02 23.586C290.396 23.934 289.694 24.108 288.914 24.108ZM297.081 24V10.644H298.809V24H297.081ZM311.101 24.108C310.129 24.108 309.259 23.898 308.491 23.478C307.735 23.058 307.141 22.482 306.709 21.75C306.277 21.018 306.061 20.178 306.061 19.23C306.061 18.282 306.277 17.442 306.709 16.71C307.141 15.978 307.735 15.408 308.491 15C309.259 14.58 310.129 14.37 311.101 14.37C311.965 14.37 312.733 14.544 313.405 14.892C314.089 15.228 314.617 15.732 314.989 16.404L313.675 17.25C313.363 16.782 312.979 16.44 312.523 16.224C312.079 15.996 311.599 15.882 311.083 15.882C310.459 15.882 309.901 16.02 309.409 16.296C308.917 16.572 308.527 16.962 308.239 17.466C307.951 17.958 307.807 18.546 307.807 19.23C307.807 19.914 307.951 20.508 308.239 21.012C308.527 21.516 308.917 21.906 309.409 22.182C309.901 22.458 310.459 22.596 311.083 22.596C311.599 22.596 312.079 22.488 312.523 22.272C312.979 22.044 313.363 21.696 313.675 21.228L314.989 22.056C314.617 22.716 314.089 23.226 313.405 23.586C312.733 23.934 311.965 24.108 311.101 24.108ZM323.148 24V21.984L323.058 21.606V18.168C323.058 17.436 322.842 16.872 322.41 16.476C321.99 16.068 321.354 15.864 320.502 15.864C319.938 15.864 319.386 15.96 318.846 16.152C318.306 16.332 317.85 16.578 317.478 16.89L316.758 15.594C317.25 15.198 317.838 14.898 318.522 14.694C319.218 14.478 319.944 14.37 320.7 14.37C322.008 14.37 323.016 14.688 323.724 15.324C324.432 15.96 324.786 16.932 324.786 18.24V24H323.148ZM320.016 24.108C319.308 24.108 318.684 23.988 318.144 23.748C317.616 23.508 317.208 23.178 316.92 22.758C316.632 22.326 316.488 21.84 316.488 21.3C316.488 20.784 316.608 20.316 316.848 19.896C317.1 19.476 317.502 19.14 318.054 18.888C318.618 18.636 319.374 18.51 320.322 18.51H323.346V19.752H320.394C319.53 19.752 318.948 19.896 318.648 20.184C318.348 20.472 318.198 20.82 318.198 21.228C318.198 21.696 318.384 22.074 318.756 22.362C319.128 22.638 319.644 22.776 320.304 22.776C320.952 22.776 321.516 22.632 321.996 22.344C322.488 22.056 322.842 21.636 323.058 21.084L323.4 22.272C323.172 22.836 322.77 23.286 322.194 23.622C321.618 23.946 320.892 24.108 320.016 24.108ZM327.984 24V14.46H329.64V17.052L329.478 16.404C329.742 15.744 330.186 15.24 330.81 14.892C331.434 14.544 332.202 14.37 333.114 14.37V16.044C333.042 16.032 332.97 16.026 332.898 16.026C332.838 16.026 332.778 16.026 332.718 16.026C331.794 16.026 331.062 16.302 330.522 16.854C329.982 17.406 329.712 18.204 329.712 19.248V24H327.984ZM339.404 24.108C338.384 24.108 337.484 23.898 336.704 23.478C335.936 23.058 335.336 22.482 334.904 21.75C334.484 21.018 334.274 20.178 334.274 19.23C334.274 18.282 334.478 17.442 334.886 16.71C335.306 15.978 335.876 15.408 336.596 15C337.328 14.58 338.15 14.37 339.062 14.37C339.986 14.37 340.802 14.574 341.51 14.982C342.218 15.39 342.77 15.966 343.166 16.71C343.574 17.442 343.778 18.3 343.778 19.284C343.778 19.356 343.772 19.44 343.76 19.536C343.76 19.632 343.754 19.722 343.742 19.806H335.624V18.564H342.842L342.14 18.996C342.152 18.384 342.026 17.838 341.762 17.358C341.498 16.878 341.132 16.506 340.664 16.242C340.208 15.966 339.674 15.828 339.062 15.828C338.462 15.828 337.928 15.966 337.46 16.242C336.992 16.506 336.626 16.884 336.362 17.376C336.098 17.856 335.966 18.408 335.966 19.032V19.32C335.966 19.956 336.11 20.526 336.398 21.03C336.698 21.522 337.112 21.906 337.64 22.182C338.168 22.458 338.774 22.596 339.458 22.596C340.022 22.596 340.532 22.5 340.988 22.308C341.456 22.116 341.864 21.828 342.212 21.444L343.166 22.56C342.734 23.064 342.194 23.448 341.546 23.712C340.91 23.976 340.196 24.108 339.404 24.108ZM350.425 24.108C349.405 24.108 348.505 23.898 347.725 23.478C346.957 23.058 346.357 22.482 345.925 21.75C345.505 21.018 345.295 20.178 345.295 19.23C345.295 18.282 345.499 17.442 345.907 16.71C346.327 15.978 346.897 15.408 347.617 15C348.349 14.58 349.171 14.37 350.083 14.37C351.007 14.37 351.823 14.574 352.531 14.982C353.239 15.39 353.791 15.966 354.187 16.71C354.595 17.442 354.799 18.3 354.799 19.284C354.799 19.356 354.793 19.44 354.781 19.536C354.781 19.632 354.775 19.722 354.763 19.806H346.645V18.564H353.863L353.161 18.996C353.173 18.384 353.047 17.838 352.783 17.358C352.519 16.878 352.153 16.506 351.685 16.242C351.229 15.966 350.695 15.828 350.083 15.828C349.483 15.828 348.949 15.966 348.481 16.242C348.013 16.506 347.647 16.884 347.383 17.376C347.119 17.856 346.987 18.408 346.987 19.032V19.32C346.987 19.956 347.131 20.526 347.419 21.03C347.719 21.522 348.133 21.906 348.661 22.182C349.189 22.458 349.795 22.596 350.479 22.596C351.043 22.596 351.553 22.5 352.009 22.308C352.477 22.116 352.885 21.828 353.233 21.444L354.187 22.56C353.755 23.064 353.215 23.448 352.567 23.712C351.931 23.976 351.217 24.108 350.425 24.108ZM357.199 24V14.46H358.855V17.052L358.693 16.404C358.957 15.744 359.401 15.24 360.025 14.892C360.649 14.544 361.417 14.37 362.329 14.37V16.044C362.257 16.032 362.185 16.026 362.113 16.026C362.053 16.026 361.993 16.026 361.933 16.026C361.009 16.026 360.277 16.302 359.737 16.854C359.197 17.406 358.927 18.204 358.927 19.248V24H357.199ZM367.317 24.108C366.525 24.108 365.769 24 365.049 23.784C364.341 23.568 363.783 23.304 363.375 22.992L364.095 21.624C364.503 21.9 365.007 22.134 365.607 22.326C366.207 22.518 366.819 22.614 367.443 22.614C368.247 22.614 368.823 22.5 369.171 22.272C369.531 22.044 369.711 21.726 369.711 21.318C369.711 21.018 369.603 20.784 369.387 20.616C369.171 20.448 368.883 20.322 368.523 20.238C368.175 20.154 367.785 20.082 367.353 20.022C366.921 19.95 366.489 19.866 366.057 19.77C365.625 19.662 365.229 19.518 364.869 19.338C364.509 19.146 364.221 18.888 364.005 18.564C363.789 18.228 363.681 17.784 363.681 17.232C363.681 16.656 363.843 16.152 364.167 15.72C364.491 15.288 364.947 14.958 365.535 14.73C366.135 14.49 366.843 14.37 367.659 14.37C368.283 14.37 368.913 14.448 369.549 14.604C370.197 14.748 370.725 14.958 371.133 15.234L370.395 16.602C369.963 16.314 369.513 16.116 369.045 16.008C368.577 15.9 368.109 15.846 367.641 15.846C366.885 15.846 366.321 15.972 365.949 16.224C365.577 16.464 365.391 16.776 365.391 17.16C365.391 17.484 365.499 17.736 365.715 17.916C365.943 18.084 366.231 18.216 366.579 18.312C366.939 18.408 367.335 18.492 367.767 18.564C368.199 18.624 368.631 18.708 369.063 18.816C369.495 18.912 369.885 19.05 370.233 19.23C370.593 19.41 370.881 19.662 371.097 19.986C371.325 20.31 371.439 20.742 371.439 21.282C371.439 21.858 371.271 22.356 370.935 22.776C370.599 23.196 370.125 23.526 369.513 23.766C368.901 23.994 368.169 24.108 367.317 24.108ZM390.493 14.172C391.261 14.172 391.939 14.328 392.527 14.64C393.127 14.94 393.595 15.408 393.931 16.044C394.279 16.668 394.453 17.472 394.453 18.456V24H391.645V18.888C391.645 18.108 391.483 17.532 391.159 17.16C390.835 16.788 390.379 16.602 389.791 16.602C389.383 16.602 389.017 16.698 388.693 16.89C388.369 17.07 388.117 17.346 387.937 17.718C387.757 18.09 387.667 18.564 387.667 19.14V24H384.859V18.888C384.859 18.108 384.697 17.532 384.373 17.16C384.061 16.788 383.611 16.602 383.023 16.602C382.615 16.602 382.249 16.698 381.925 16.89C381.601 17.07 381.349 17.346 381.169 17.718C380.989 18.09 380.899 18.564 380.899 19.14V24H378.091V14.316H380.773V16.962L380.269 16.188C380.605 15.528 381.079 15.03 381.691 14.694C382.315 14.346 383.023 14.172 383.815 14.172C384.703 14.172 385.477 14.4 386.137 14.856C386.809 15.3 387.253 15.984 387.469 16.908L386.479 16.638C386.803 15.882 387.319 15.282 388.027 14.838C388.747 14.394 389.569 14.172 390.493 14.172ZM402.91 24V22.11L402.73 21.696V18.312C402.73 17.712 402.544 17.244 402.172 16.908C401.812 16.572 401.254 16.404 400.498 16.404C399.982 16.404 399.472 16.488 398.968 16.656C398.476 16.812 398.056 17.028 397.708 17.304L396.7 15.342C397.228 14.97 397.864 14.682 398.608 14.478C399.352 14.274 400.108 14.172 400.876 14.172C402.352 14.172 403.498 14.52 404.314 15.216C405.13 15.912 405.538 16.998 405.538 18.474V24H402.91ZM399.958 24.144C399.202 24.144 398.554 24.018 398.014 23.766C397.474 23.502 397.06 23.148 396.772 22.704C396.484 22.26 396.34 21.762 396.34 21.21C396.34 20.634 396.478 20.13 396.754 19.698C397.042 19.266 397.492 18.93 398.104 18.69C398.716 18.438 399.514 18.312 400.498 18.312H403.072V19.95H400.804C400.144 19.95 399.688 20.058 399.436 20.274C399.196 20.49 399.076 20.76 399.076 21.084C399.076 21.444 399.214 21.732 399.49 21.948C399.778 22.152 400.168 22.254 400.66 22.254C401.128 22.254 401.548 22.146 401.92 21.93C402.292 21.702 402.562 21.372 402.73 20.94L403.162 22.236C402.958 22.86 402.586 23.334 402.046 23.658C401.506 23.982 400.81 24.144 399.958 24.144ZM412.308 24.144C411.396 24.144 410.574 23.94 409.842 23.532C409.11 23.112 408.528 22.53 408.096 21.786C407.676 21.042 407.466 20.166 407.466 19.158C407.466 18.138 407.676 17.256 408.096 16.512C408.528 15.768 409.11 15.192 409.842 14.784C410.574 14.376 411.396 14.172 412.308 14.172C413.124 14.172 413.838 14.352 414.45 14.712C415.062 15.072 415.536 15.618 415.872 16.35C416.208 17.082 416.376 18.018 416.376 19.158C416.376 20.286 416.214 21.222 415.89 21.966C415.566 22.698 415.098 23.244 414.486 23.604C413.886 23.964 413.16 24.144 412.308 24.144ZM412.794 21.84C413.25 21.84 413.664 21.732 414.036 21.516C414.408 21.3 414.702 20.994 414.918 20.598C415.146 20.19 415.26 19.71 415.26 19.158C415.26 18.594 415.146 18.114 414.918 17.718C414.702 17.322 414.408 17.016 414.036 16.8C413.664 16.584 413.25 16.476 412.794 16.476C412.326 16.476 411.906 16.584 411.534 16.8C411.162 17.016 410.862 17.322 410.634 17.718C410.418 18.114 410.31 18.594 410.31 19.158C410.31 19.71 410.418 20.19 410.634 20.598C410.862 20.994 411.162 21.3 411.534 21.516C411.906 21.732 412.326 21.84 412.794 21.84ZM415.332 24V22.02L415.386 19.14L415.206 16.278V10.644H418.014V24H415.332ZM425.418 24.144C424.314 24.144 423.342 23.928 422.502 23.496C421.674 23.064 421.032 22.476 420.576 21.732C420.12 20.976 419.892 20.118 419.892 19.158C419.892 18.186 420.114 17.328 420.558 16.584C421.014 15.828 421.632 15.24 422.412 14.82C423.192 14.388 424.074 14.172 425.058 14.172C426.006 14.172 426.858 14.376 427.614 14.784C428.382 15.18 428.988 15.756 429.432 16.512C429.876 17.256 430.098 18.15 430.098 19.194C430.098 19.302 430.092 19.428 430.08 19.572C430.068 19.704 430.056 19.83 430.044 19.95H422.178V18.312H428.568L427.488 18.798C427.488 18.294 427.386 17.856 427.182 17.484C426.978 17.112 426.696 16.824 426.336 16.62C425.976 16.404 425.556 16.296 425.076 16.296C424.596 16.296 424.17 16.404 423.798 16.62C423.438 16.824 423.156 17.118 422.952 17.502C422.748 17.874 422.646 18.318 422.646 18.834V19.266C422.646 19.794 422.76 20.262 422.988 20.67C423.228 21.066 423.558 21.372 423.978 21.588C424.41 21.792 424.914 21.894 425.49 21.894C426.006 21.894 426.456 21.816 426.84 21.66C427.236 21.504 427.596 21.27 427.92 20.958L429.414 22.578C428.97 23.082 428.412 23.472 427.74 23.748C427.068 24.012 426.294 24.144 425.418 24.144ZM442.79 24.144C441.974 24.144 441.26 23.964 440.648 23.604C440.036 23.244 439.556 22.698 439.208 21.966C438.872 21.222 438.704 20.286 438.704 19.158C438.704 18.018 438.866 17.082 439.19 16.35C439.514 15.618 439.982 15.072 440.594 14.712C441.206 14.352 441.938 14.172 442.79 14.172C443.702 14.172 444.518 14.382 445.238 14.802C445.97 15.21 446.546 15.786 446.966 16.53C447.398 17.274 447.614 18.15 447.614 19.158C447.614 20.178 447.398 21.06 446.966 21.804C446.546 22.548 445.97 23.124 445.238 23.532C444.518 23.94 443.702 24.144 442.79 24.144ZM437.066 27.492V14.316H439.748V16.296L439.694 19.176L439.874 22.038V27.492H437.066ZM442.304 21.84C442.772 21.84 443.186 21.732 443.546 21.516C443.918 21.3 444.212 20.994 444.428 20.598C444.656 20.19 444.77 19.71 444.77 19.158C444.77 18.594 444.656 18.114 444.428 17.718C444.212 17.322 443.918 17.016 443.546 16.8C443.186 16.584 442.772 16.476 442.304 16.476C441.836 16.476 441.416 16.584 441.044 16.8C440.672 17.016 440.378 17.322 440.162 17.718C439.946 18.114 439.838 18.594 439.838 19.158C439.838 19.71 439.946 20.19 440.162 20.598C440.378 20.994 440.672 21.3 441.044 21.516C441.416 21.732 441.836 21.84 442.304 21.84ZM454.101 24.144C453.069 24.144 452.151 23.928 451.347 23.496C450.555 23.064 449.925 22.476 449.457 21.732C449.001 20.976 448.773 20.118 448.773 19.158C448.773 18.186 449.001 17.328 449.457 16.584C449.925 15.828 450.555 15.24 451.347 14.82C452.151 14.388 453.069 14.172 454.101 14.172C455.121 14.172 456.033 14.388 456.837 14.82C457.641 15.24 458.271 15.822 458.727 16.566C459.183 17.31 459.411 18.174 459.411 19.158C459.411 20.118 459.183 20.976 458.727 21.732C458.271 22.476 457.641 23.064 456.837 23.496C456.033 23.928 455.121 24.144 454.101 24.144ZM454.101 21.84C454.569 21.84 454.989 21.732 455.361 21.516C455.733 21.3 456.027 20.994 456.243 20.598C456.459 20.19 456.567 19.71 456.567 19.158C456.567 18.594 456.459 18.114 456.243 17.718C456.027 17.322 455.733 17.016 455.361 16.8C454.989 16.584 454.569 16.476 454.101 16.476C453.633 16.476 453.213 16.584 452.841 16.8C452.469 17.016 452.169 17.322 451.941 17.718C451.725 18.114 451.617 18.594 451.617 19.158C451.617 19.71 451.725 20.19 451.941 20.598C452.169 20.994 452.469 21.3 452.841 21.516C453.213 21.732 453.633 21.84 454.101 21.84ZM464.546 24.144C463.718 24.144 462.92 24.048 462.152 23.856C461.396 23.652 460.796 23.4 460.352 23.1L461.288 21.084C461.732 21.36 462.254 21.588 462.854 21.768C463.466 21.936 464.066 22.02 464.654 22.02C465.302 22.02 465.758 21.942 466.022 21.786C466.298 21.63 466.436 21.414 466.436 21.138C466.436 20.91 466.328 20.742 466.112 20.634C465.908 20.514 465.632 20.424 465.284 20.364C464.936 20.304 464.552 20.244 464.132 20.184C463.724 20.124 463.31 20.046 462.89 19.95C462.47 19.842 462.086 19.686 461.738 19.482C461.39 19.278 461.108 19.002 460.892 18.654C460.688 18.306 460.586 17.856 460.586 17.304C460.586 16.692 460.76 16.152 461.108 15.684C461.468 15.216 461.984 14.85 462.656 14.586C463.328 14.31 464.132 14.172 465.068 14.172C465.728 14.172 466.4 14.244 467.084 14.388C467.768 14.532 468.338 14.742 468.794 15.018L467.858 17.016C467.39 16.74 466.916 16.554 466.436 16.458C465.968 16.35 465.512 16.296 465.068 16.296C464.444 16.296 463.988 16.38 463.7 16.548C463.412 16.716 463.268 16.932 463.268 17.196C463.268 17.436 463.37 17.616 463.574 17.736C463.79 17.856 464.072 17.952 464.42 18.024C464.768 18.096 465.146 18.162 465.554 18.222C465.974 18.27 466.394 18.348 466.814 18.456C467.234 18.564 467.612 18.72 467.948 18.924C468.296 19.116 468.578 19.386 468.794 19.734C469.01 20.07 469.118 20.514 469.118 21.066C469.118 21.666 468.938 22.2 468.578 22.668C468.218 23.124 467.696 23.484 467.012 23.748C466.34 24.012 465.518 24.144 464.546 24.144ZM474.109 24.144C473.281 24.144 472.483 24.048 471.715 23.856C470.959 23.652 470.359 23.4 469.915 23.1L470.851 21.084C471.295 21.36 471.817 21.588 472.417 21.768C473.029 21.936 473.629 22.02 474.217 22.02C474.865 22.02 475.321 21.942 475.585 21.786C475.861 21.63 475.999 21.414 475.999 21.138C475.999 20.91 475.891 20.742 475.675 20.634C475.471 20.514 475.195 20.424 474.847 20.364C474.499 20.304 474.115 20.244 473.695 20.184C473.287 20.124 472.873 20.046 472.453 19.95C472.033 19.842 471.649 19.686 471.301 19.482C470.953 19.278 470.671 19.002 470.455 18.654C470.251 18.306 470.149 17.856 470.149 17.304C470.149 16.692 470.323 16.152 470.671 15.684C471.031 15.216 471.547 14.85 472.219 14.586C472.891 14.31 473.695 14.172 474.631 14.172C475.291 14.172 475.963 14.244 476.647 14.388C477.331 14.532 477.901 14.742 478.357 15.018L477.421 17.016C476.953 16.74 476.479 16.554 475.999 16.458C475.531 16.35 475.075 16.296 474.631 16.296C474.007 16.296 473.551 16.38 473.263 16.548C472.975 16.716 472.831 16.932 472.831 17.196C472.831 17.436 472.933 17.616 473.137 17.736C473.353 17.856 473.635 17.952 473.983 18.024C474.331 18.096 474.709 18.162 475.117 18.222C475.537 18.27 475.957 18.348 476.377 18.456C476.797 18.564 477.175 18.72 477.511 18.924C477.859 19.116 478.141 19.386 478.357 19.734C478.573 20.07 478.681 20.514 478.681 21.066C478.681 21.666 478.501 22.2 478.141 22.668C477.781 23.124 477.259 23.484 476.575 23.748C475.903 24.012 475.081 24.144 474.109 24.144ZM480.413 24V14.316H483.221V24H480.413ZM481.817 12.966C481.301 12.966 480.881 12.816 480.557 12.516C480.233 12.216 480.071 11.844 480.071 11.4C480.071 10.956 480.233 10.584 480.557 10.284C480.881 9.984 481.301 9.834 481.817 9.834C482.333 9.834 482.753 9.978 483.077 10.266C483.401 10.542 483.563 10.902 483.563 11.346C483.563 11.814 483.401 12.204 483.077 12.516C482.765 12.816 482.345 12.966 481.817 12.966ZM491.551 24.144C490.699 24.144 489.967 23.964 489.355 23.604C488.743 23.244 488.275 22.698 487.951 21.966C487.627 21.222 487.465 20.286 487.465 19.158C487.465 18.018 487.633 17.082 487.969 16.35C488.317 15.618 488.797 15.072 489.409 14.712C490.021 14.352 490.735 14.172 491.551 14.172C492.463 14.172 493.279 14.376 493.999 14.784C494.731 15.192 495.307 15.768 495.727 16.512C496.159 17.256 496.375 18.138 496.375 19.158C496.375 20.166 496.159 21.042 495.727 21.786C495.307 22.53 494.731 23.112 493.999 23.532C493.279 23.94 492.463 24.144 491.551 24.144ZM485.827 24V10.644H488.635V16.278L488.455 19.14L488.509 22.02V24H485.827ZM491.065 21.84C491.533 21.84 491.947 21.732 492.307 21.516C492.679 21.3 492.973 20.994 493.189 20.598C493.417 20.19 493.531 19.71 493.531 19.158C493.531 18.594 493.417 18.114 493.189 17.718C492.973 17.322 492.679 17.016 492.307 16.8C491.947 16.584 491.533 16.476 491.065 16.476C490.597 16.476 490.177 16.584 489.805 16.8C489.433 17.016 489.139 17.322 488.923 17.718C488.707 18.114 488.599 18.594 488.599 19.158C488.599 19.71 488.707 20.19 488.923 20.598C489.139 20.994 489.433 21.3 489.805 21.516C490.177 21.732 490.597 21.84 491.065 21.84ZM498.255 24V10.644H501.063V24H498.255ZM508.475 24.144C507.371 24.144 506.399 23.928 505.559 23.496C504.731 23.064 504.089 22.476 503.633 21.732C503.177 20.976 502.949 20.118 502.949 19.158C502.949 18.186 503.171 17.328 503.615 16.584C504.071 15.828 504.689 15.24 505.469 14.82C506.249 14.388 507.131 14.172 508.115 14.172C509.063 14.172 509.915 14.376 510.671 14.784C511.439 15.18 512.045 15.756 512.489 16.512C512.933 17.256 513.155 18.15 513.155 19.194C513.155 19.302 513.149 19.428 513.137 19.572C513.125 19.704 513.113 19.83 513.101 19.95H505.235V18.312H511.625L510.545 18.798C510.545 18.294 510.443 17.856 510.239 17.484C510.035 17.112 509.753 16.824 509.393 16.62C509.033 16.404 508.613 16.296 508.133 16.296C507.653 16.296 507.227 16.404 506.855 16.62C506.495 16.824 506.213 17.118 506.009 17.502C505.805 17.874 505.703 18.318 505.703 18.834V19.266C505.703 19.794 505.817 20.262 506.045 20.67C506.285 21.066 506.615 21.372 507.035 21.588C507.467 21.792 507.971 21.894 508.547 21.894C509.063 21.894 509.513 21.816 509.897 21.66C510.293 21.504 510.653 21.27 510.977 20.958L512.471 22.578C512.027 23.082 511.469 23.472 510.797 23.748C510.125 24.012 509.351 24.144 508.475 24.144ZM515.781 24.108C515.445 24.108 515.157 23.994 514.917 23.766C514.677 23.526 514.557 23.226 514.557 22.866C514.557 22.506 514.677 22.212 514.917 21.984C515.157 21.756 515.445 21.642 515.781 21.642C516.105 21.642 516.381 21.756 516.609 21.984C516.849 22.212 516.969 22.506 516.969 22.866C516.969 23.226 516.849 23.526 516.609 23.766C516.381 23.994 516.105 24.108 515.781 24.108Z" fill="#606060"/>
</g>
<defs>
<clipPath id="clip0_91_987">
<rect width="572" height="30" fill="white"/>
</clipPath>
</defs>
</svg>
